<?xml version="1.0" encoding="utf-8"?>
<!-- Generator: Adobe Illustrator 21.1.0, SVG Export Plug-In . SVG Version: 6.00 Build 0)  -->
<svg version="1.1" id="Ebene_1" xmlns="http://www.w3.org/2000/svg" xmlns:xlink="http://www.w3.org/1999/xlink" x="0px" y="0px"
	 width="300px" height="44px" viewBox="0 0 300 44" style="enable-background:new 0 0 300 44;" xml:space="preserve">
<style type="text/css">
	.st0{fill:#93A24D;}
	.st1{fill:#E20613;}
	.st2{fill:#FFFFFF;}
	.st3{fill-rule:evenodd;clip-rule:evenodd;fill:#3A4049;}
	.st4{fill-rule:evenodd;clip-rule:evenodd;fill:#0063AE;}
	.st5{fill-rule:evenodd;clip-rule:evenodd;fill:#98CCCF;}
	.st6{fill-rule:evenodd;clip-rule:evenodd;fill:#93A24D;}
	.st7{fill-rule:evenodd;clip-rule:evenodd;fill:#5D7B43;}
</style>
<g>
	<path class="st0" d="M109.9,38.5h-4.5l3.6-16.9h7.1l1,10.6h0.2l5.3-10.6h7.3l-3.6,16.9h-4.5l3.2-12.9h-0.2l-7,12.9h-3.9l-1.6-12.9
		h-0.1L109.9,38.5z"/>
	<path class="st0" d="M140.8,34.6c-0.4,1.8-1.2,2.8-2.3,3.4c-1.1,0.6-2.6,0.7-4.3,0.7c-4.7,0-5.4-1.6-4.5-6c1-4.5,2.3-6.1,7.1-6.1
		c4.4,0,5.5,1.2,4.5,6.1l-0.1,0.7h-7.7c-0.4,2.1-0.3,2.7,1.3,2.7c1.2,0,2-0.1,2.3-1.4H140.8z M137.6,31.1c0.4-1.8-0.3-1.9-1.6-1.9
		c-1.4,0-1.9,0.3-2.2,1.9H137.6z"/>
	<path class="st0" d="M145.5,38.5h-3.9l2.5-11.8h3.9L145.5,38.5z M148.4,24.6h-3.9l0.6-3h3.9L148.4,24.6z"/>
	<path class="st0" d="M154.1,26.7l-0.5,2.2h0.2c1-1.9,2.2-2.3,4-2.3c2.6,0,3.5,1.2,3,3.8l-1.7,8.2h-3.9l1.5-7.3
		c0.2-1.1,0-1.7-1.2-1.7c-1.7,0-2.2,1-2.6,2.5l-1.4,6.5h-3.9l2.5-11.8H154.1z"/>
	<path class="st0" d="M184.5,21.6h4.5l-7.3,16.9h-6.5l0-10.6H175l-4.7,10.6h-6.4l-0.1-16.9h4.6l-0.3,13h0.2l5.9-13h4.7l0.3,13h0.2
		L184.5,21.6z"/>
	<path class="st0" d="M197.9,34.6c-0.4,1.8-1.2,2.8-2.3,3.4c-1.1,0.6-2.6,0.7-4.3,0.7c-4.7,0-5.4-1.6-4.5-6c1-4.5,2.3-6.1,7.1-6.1
		c4.4,0,5.5,1.2,4.5,6.1l-0.1,0.7h-7.7c-0.4,2.1-0.3,2.7,1.3,2.7c1.2,0,2-0.1,2.3-1.4H197.9z M194.8,31.1c0.4-1.8-0.3-1.9-1.6-1.9
		c-1.4,0-1.9,0.3-2.2,1.9H194.8z"/>
	<path class="st0" d="M210.9,34.6c-0.4,1.8-1.2,2.8-2.3,3.4c-1.1,0.6-2.6,0.7-4.3,0.7c-4.7,0-5.4-1.6-4.5-6c1-4.5,2.3-6.1,7.1-6.1
		c4.4,0,5.5,1.2,4.5,6.1l-0.1,0.7h-7.7c-0.4,2.1-0.3,2.7,1.3,2.7c1.2,0,2-0.1,2.3-1.4H210.9z M207.7,31.1c0.4-1.8-0.3-1.9-1.6-1.9
		c-1.4,0-1.9,0.3-2.2,1.9H207.7z"/>
	<path class="st0" d="M217.4,31.1h0.7l3.3-4.4h4.3l-4.5,5.7l2.8,6.1h-4.5l-1.8-4.8h-0.7l-1,4.8H212l3.6-16.9h3.9L217.4,31.1z"/>
	<path class="st0" d="M237.2,34.6c-0.4,1.8-1.2,2.8-2.3,3.4c-1.1,0.6-2.6,0.7-4.3,0.7c-4.7,0-5.4-1.6-4.5-6c1-4.5,2.3-6.1,7.1-6.1
		c4.4,0,5.5,1.2,4.5,6.1l-0.1,0.7h-7.7c-0.4,2.1-0.3,2.7,1.3,2.7c1.2,0,2-0.1,2.3-1.4H237.2z M234,31.1c0.4-1.8-0.3-1.9-1.6-1.9
		c-1.4,0-1.9,0.3-2.2,1.9H234z"/>
	<path class="st0" d="M244.7,26.7l-0.5,2.2h0.2c1-1.9,2.2-2.3,4-2.3c2.6,0,3.5,1.2,3,3.8l-1.7,8.2h-3.9l1.5-7.3
		c0.2-1.1,0-1.7-1.2-1.7c-1.7,0-2.2,1-2.6,2.5l-1.4,6.5h-3.9l2.5-11.8H244.7z"/>
	<path class="st0" d="M263.6,38.5h-3.9l0.5-2H260c-0.8,1.8-2.2,2.2-3.8,2.2c-2.9,0-4.2-1.2-3.6-4.3l0.6-2.7c0.8-3.6,2.3-5,5.6-5
		c1.4,0,2.6,0.3,2.9,1.8h0.2l1.4-6.8h3.9L263.6,38.5z M258.2,35.7c1.6,0,2.2-0.4,2.7-3.1c0.5-2.3,0.6-3.1-1.4-3.1
		c-1.9,0-2.1,0.7-2.6,3.1C256.2,35.5,256.6,35.7,258.2,35.7z"/>
	<path class="st0" d="M270.5,38.5h-3.7l0.8-3.9h3.7L270.5,38.5z"/>
	<path class="st0" d="M286,33.8c-0.5,2.2-1.1,3.4-2.2,4.1c-1,0.7-2.5,0.8-4.6,0.8c-4.6,0-5.4-1.4-4.4-6c0.9-4,2.1-6.1,6.9-6.1
		c3.4,0,5.6,0.4,4.8,4.6h-3.9c0.2-0.6,0.2-1,0-1.3c-0.2-0.2-0.6-0.3-1.5-0.3c-1.4,0-1.9,0.4-2.4,3.1c-0.6,2.8-0.3,3.1,1.1,3.1
		c1.8,0,1.9-0.4,2.3-1.9H286z"/>
	<path class="st0" d="M292.7,28.9h0.2c1-1.9,2.2-2.3,4-2.3c2.6,0,3.5,1.2,3,3.8l-1.7,8.2h-3.9l1.5-7.3c0.2-1.1,0-1.7-1.2-1.7
		c-1.7,0-2.2,1-2.6,2.5l-1.4,6.5h-3.9l3.6-16.9h3.9L292.7,28.9z"/>
	<rect x="248.6" y="7.7" transform="matrix(0.953 -0.303 0.303 0.953 7.6447 78.0308)" class="st1" width="13.3" height="13.3"/>
	<g>
		<g>
			<polygon class="st2" points="260.4,14.5 259.4,11.3 256.3,12.3 255.3,9.2 252.2,10.2 253.2,13.3 250,14.3 251,17.5 254.1,16.5 
				255.1,19.6 258.3,18.6 257.3,15.5 			"/>
		</g>
	</g>
	<path class="st3" d="M80.9,16.9l-9.1-8.5l-3.5,2.5L58,0.2l-7.5,7.5l-1.6-2.1L34.7,20l-3-2.3L16.9,33.2l15.4-10.8l2.1,1.1l13.3-11.2
		l3.9,0.6L58,8.4l10.6,6.8l4.9-1.5l4.1,3C78.7,16.7,79.8,16.8,80.9,16.9L80.9,16.9z M91.3,26.5L84,19.7c-0.7,0-1.4,0-2.2,0
		L91.3,26.5z"/>
	<path class="st4" d="M12.5,37.3C40.8,20.2,68.8,41,98,28.8C70.8,46.9,40.7,25.1,12.5,37.3L12.5,37.3z"/>
	<path class="st5" d="M0,44c27.2-16.7,68.5,5.2,94-9.4C64.3,51.6,21.4,34.7,0,44L0,44z"/>
	<path class="st6" d="M61.4,29.5c3.9-4.8,9.4-8,15.4-9.7c-7.7,1.1-14.9,4.5-21.5,9C57.4,29.1,59.4,29.3,61.4,29.5L61.4,29.5z"/>
	<path class="st7" d="M54.1,28.8C64.5,21.4,74.9,18,85.5,18.7c-13.3-2.8-26.7,0.4-40.3,9.5C48.2,28.3,51.1,28.5,54.1,28.8L54.1,28.8
		z"/>
</g>
</svg>
