<?xml version="1.0" encoding="utf-8"?>
<!-- Generator: Adobe Illustrator 21.1.0, SVG Export Plug-In . SVG Version: 6.00 Build 0)  -->
<svg version="1.1" id="Ebene_1" xmlns="http://www.w3.org/2000/svg" xmlns:xlink="http://www.w3.org/1999/xlink" x="0px" y="0px"
	 width="44px" height="28px" viewBox="0 0 44 28" style="enable-background:new 0 0 44 28;" xml:space="preserve">
<style type="text/css">
	.st0{fill:#FFF;}
</style>
<g>
	<path class="st0" d="M0,0c14.8,3.1,29.3,6.1,44,9.2c-3.5,2.7-6.8,5.3-10,7.8c0,3.6,0,7.2,0,10.9c-2.7-1.8-5.3-3.5-8-5.3
		c0.6-0.5,1.1-0.9,1.5-1.3c0-0.1-0.1-0.1-0.1-0.2c-3.2,2.3-6.3,4.5-9.6,6.9C11.9,18.7,6,9.5,0,0z M9.1,6c6.1,3.9,12.2,7.7,18.2,11.6
		c0.6,0.4,1.2,1,1.6,1.6c1.1,1.7,2.1,3.5,3.3,5.5c0-3,0-5.6,0-8.4C23.1,12,14.2,7.6,5.2,3.3c0,0.1-0.1,0.1-0.1,0.2
		C6.4,4.3,7.8,5.1,9.1,6z"/>
</g>
</svg>
